<?xml version="1.0" encoding="UTF-8" standalone="no"?>
<!-- Created with Inkscape (http://www.inkscape.org/) -->

<svg
   width="160px"
   height="160px"
   viewBox="0 0 160 160"
   version="1.1"
   id="Logo"
   inkscape:export-filename="logo.png"
   inkscape:export-xdpi="96"
   inkscape:export-ydpi="96"
   sodipodi:docname="logo.svg"
   inkscape:version="1.2 (dc2aedaf03, 2022-05-15)"
   xmlns:inkscape="http://www.inkscape.org/namespaces/inkscape"
   xmlns:sodipodi="http://sodipodi.sourceforge.net/DTD/sodipodi-0.dtd"
   xmlns="http://www.w3.org/2000/svg"
   xmlns:svg="http://www.w3.org/2000/svg">
  <sodipodi:namedview
     id="namedview7"
     pagecolor="#ffffff"
     bordercolor="#000000"
     borderopacity="0.25"
     inkscape:showpageshadow="2"
     inkscape:pageopacity="0.0"
     inkscape:pagecheckerboard="0"
     inkscape:deskcolor="#d1d1d1"
     inkscape:document-units="mm"
     showgrid="false"
     showguides="true"
     inkscape:zoom="2.1883305"
     inkscape:cx="279.43676"
     inkscape:cy="65.346618"
     inkscape:window-width="1920"
     inkscape:window-height="1009"
     inkscape:window-x="-8"
     inkscape:window-y="-8"
     inkscape:window-maximized="1"
     inkscape:current-layer="layer1" />
  <defs
     id="defs2">
    <rect
       x="300.64508"
       y="167.55698"
       width="451.92508"
       height="140.74783"
       id="rect1632" />
  </defs>
  <g
     inkscape:label="Camada 1"
     inkscape:groupmode="layer"
     id="layer1"
     transform="translate(-162.13456,-160.01323)">
    <path
       id="rect9213"
       style="fill:#3633c9;fill-opacity:1;stroke:none;stroke-opacity:1"
       d="M 227.7498 185.89214 A 39.639386 39.639386 0 0 0 220.86698 186.4937 A 39.639386 39.639386 0 0 0 214.19316 188.28276 A 39.639386 39.639386 0 0 0 207.93144 191.20268 A 39.639386 39.639386 0 0 0 202.27128 195.16557 A 39.639386 39.639386 0 0 0 197.38456 200.05034 A 39.639386 39.639386 0 0 0 193.42167 205.7105 A 39.639386 39.639386 0 0 0 190.50175 211.97417 A 39.639386 39.639386 0 0 0 188.71269 218.648 A 39.639386 39.639386 0 0 0 188.11112 225.53081 A 39.639386 39.639386 0 0 0 188.71269 232.41558 A 39.639386 39.639386 0 0 0 190.50175 239.0894 A 39.639386 39.639386 0 0 0 193.42167 245.35112 A 39.639386 39.639386 0 0 0 197.38456 251.01128 A 39.639386 39.639386 0 0 0 202.27128 255.898 A 39.639386 39.639386 0 0 0 207.93144 259.85894 A 39.639386 39.639386 0 0 0 214.19316 262.78081 A 39.639386 39.639386 0 0 0 220.86698 264.56792 A 39.639386 39.639386 0 0 0 227.7498 265.17144 A 39.639386 39.639386 0 0 0 234.63261 264.56792 A 39.639386 39.639386 0 0 0 241.30839 262.78081 A 39.639386 39.639386 0 0 0 247.57011 259.85894 A 39.639386 39.639386 0 0 0 253.23027 255.898 A 39.639386 39.639386 0 0 0 258.11503 251.01128 A 39.639386 39.639386 0 0 0 262.07792 245.35112 A 39.639386 39.639386 0 0 0 264.9998 239.0894 A 39.639386 39.639386 0 0 0 266.78691 232.41558 A 39.639386 39.639386 0 0 0 266.82206 232.22026 A 39.639386 39.639386 0 0 0 266.85331 232.02495 A 39.639386 39.639386 0 0 0 266.88652 231.82964 A 39.639386 39.639386 0 0 0 266.91777 231.63433 A 39.639386 39.639386 0 0 0 266.94706 231.43901 A 39.639386 39.639386 0 0 0 266.97636 231.2437 A 39.639386 39.639386 0 0 0 267.0037 231.04839 A 39.639386 39.639386 0 0 0 267.03105 230.85308 A 39.639386 39.639386 0 0 0 267.05644 230.65581 A 39.639386 39.639386 0 0 0 267.08183 230.4605 A 39.639386 39.639386 0 0 0 267.10527 230.26323 A 39.639386 39.639386 0 0 0 267.1287 230.06792 A 39.639386 39.639386 0 0 0 267.15214 229.87065 A 39.639386 39.639386 0 0 0 267.17167 229.67534 A 39.639386 39.639386 0 0 0 267.19316 229.47808 A 39.639386 39.639386 0 0 0 267.21269 229.28081 A 39.639386 39.639386 0 0 0 267.23027 229.08354 A 39.639386 39.639386 0 0 0 267.24784 228.88823 A 39.639386 39.639386 0 0 0 267.26347 228.69097 A 39.639386 39.639386 0 0 0 267.27909 228.4937 A 39.639386 39.639386 0 0 0 267.29277 228.29644 A 39.639386 39.639386 0 0 0 267.30644 228.09917 A 39.639386 39.639386 0 0 0 267.31816 227.9019 A 39.639386 39.639386 0 0 0 267.32988 227.70464 A 39.639386 39.639386 0 0 0 267.33964 227.50737 A 39.639386 39.639386 0 0 0 267.34941 227.31011 A 39.639386 39.639386 0 0 0 267.35917 227.11284 A 39.639386 39.639386 0 0 0 267.36503 226.91362 A 39.639386 39.639386 0 0 0 267.37284 226.71636 A 39.639386 39.639386 0 0 0 267.37675 226.51909 A 39.639386 39.639386 0 0 0 267.38261 226.32183 A 39.639386 39.639386 0 0 0 267.38456 226.12456 A 39.639386 39.639386 0 0 0 267.38847 225.92534 A 39.639386 39.639386 0 0 0 267.38847 225.72808 A 39.639386 39.639386 0 0 0 267.39042 225.53081 A 39.639386 39.639386 0 0 0 267.39042 225.46636 A 39.639386 39.639386 0 0 0 267.39042 225.4019 A 39.639386 39.639386 0 0 0 267.38847 225.3394 A 39.639386 39.639386 0 0 0 267.38847 225.27495 A 39.639386 39.639386 0 0 0 267.38847 225.2105 A 39.639386 39.639386 0 0 0 267.38847 225.14604 A 39.639386 39.639386 0 0 0 267.38652 225.08159 A 39.639386 39.639386 0 0 0 267.38652 225.01909 A 39.639386 39.639386 0 0 0 267.38652 224.95464 A 39.639386 39.639386 0 0 0 267.38456 224.89019 A 39.639386 39.639386 0 0 0 267.38261 224.82573 A 39.639386 39.639386 0 0 0 267.38261 224.76128 A 39.639386 39.639386 0 0 0 267.38066 224.69878 A 39.639386 39.639386 0 0 0 267.38066 224.63433 A 39.639386 39.639386 0 0 0 267.3787 224.56987 A 39.639386 39.639386 0 0 0 267.37675 224.50542 A 39.639386 39.639386 0 0 0 267.3748 224.44097 A 39.639386 39.639386 0 0 0 267.37284 224.37847 A 39.639386 39.639386 0 0 0 267.37089 224.31401 A 39.639386 39.639386 0 0 0 267.36894 224.24956 A 39.639386 39.639386 0 0 0 267.36699 224.18511 A 39.639386 39.639386 0 0 0 267.36503 224.12261 A 39.639386 39.639386 0 0 0 267.36308 224.05815 A 39.639386 39.639386 0 0 0 267.35917 223.9937 A 39.639386 39.639386 0 0 0 267.35722 223.92925 A 39.639386 39.639386 0 0 0 267.35527 223.86479 A 39.639386 39.639386 0 0 0 267.35136 223.80229 A 39.639386 39.639386 0 0 0 267.34941 223.73784 A 39.639386 39.639386 0 0 0 267.3455 223.67339 A 39.639386 39.639386 0 0 0 267.34355 223.60894 A 39.639386 39.639386 0 0 0 267.33964 223.54644 A 39.639386 39.639386 0 0 0 267.33769 223.48198 A 39.639386 39.639386 0 0 0 267.33378 223.41753 A 39.639386 39.639386 0 0 0 267.32988 223.35308 A 39.639386 39.639386 0 0 0 267.32597 223.29058 A 39.639386 39.639386 0 0 0 267.32206 223.22612 A 39.639386 39.639386 0 0 0 267.12089 220.92925 A 39.639386 39.639386 0 0 0 266.78691 218.648 A 39.639386 39.639386 0 0 0 266.32011 216.39018 A 39.639386 39.639386 0 0 0 265.72441 214.16167 A 39.639386 39.639386 0 0 0 264.9998 211.97417 A 39.639386 39.639386 0 0 0 264.14628 209.82964 A 39.639386 39.639386 0 0 0 263.17363 207.74175 A 39.639386 39.639386 0 0 0 262.07792 205.7105 A 39.639386 39.639386 0 0 0 260.86894 203.74956 A 39.639386 39.639386 0 0 0 259.54667 201.85893 A 39.639386 39.639386 0 0 0 258.11503 200.05034 A 39.639386 39.639386 0 0 0 256.58378 198.32964 A 39.639386 39.639386 0 0 0 254.95292 196.69878 A 39.639386 39.639386 0 0 0 253.23027 195.16557 A 39.639386 39.639386 0 0 0 251.42167 193.73589 A 39.639386 39.639386 0 0 0 249.533 192.41362 A 39.639386 39.639386 0 0 0 247.57011 191.20268 A 39.639386 39.639386 0 0 0 245.54081 190.10893 A 39.639386 39.639386 0 0 0 243.45097 189.13432 A 39.639386 39.639386 0 0 0 241.30839 188.28276 A 39.639386 39.639386 0 0 0 239.11894 187.5562 A 39.639386 39.639386 0 0 0 236.89237 186.9605 A 39.639386 39.639386 0 0 0 234.63261 186.4937 A 39.639386 39.639386 0 0 0 232.35136 186.15972 A 39.639386 39.639386 0 0 0 230.05448 185.95854 A 39.639386 39.639386 0 0 0 227.7498 185.89214 z " />
    <path
       id="path12435"
       style="fill:#3633c9;fill-opacity:1;stroke:none;stroke-opacity:1"
       d="M 162.62479 160.53081 L 162.62479 290.53081 L 292.8748 290.53081 L 292.8748 160.53081 L 162.62479 160.53081 z M 227.7498 170.62456 C 228.69744 170.62456 229.64011 170.64743 230.57597 170.69487 C 231.51183 170.74231 232.44016 170.81404 233.36308 170.90776 C 234.286 171.00149 235.20229 171.11655 236.11112 171.25542 C 237.01996 171.39428 237.92261 171.55694 238.8162 171.73979 C 239.7098 171.92264 240.59525 172.12738 241.47245 172.35307 C 242.34966 172.57876 243.21826 172.82398 244.07792 173.09136 C 244.93759 173.35873 245.78773 173.64672 246.6287 173.95464 C 247.46968 174.26255 248.30171 174.59171 249.12284 174.93901 C 249.94398 175.28632 250.75434 175.65308 251.55448 176.03862 C 252.35463 176.42416 253.14366 176.82888 253.92167 177.25151 C 254.69968 177.67414 255.46773 178.11326 256.22245 178.57182 C 256.97717 179.03039 257.71873 179.50815 258.44902 180.00151 C 259.1793 180.49487 259.89862 181.00381 260.60331 181.53081 C 261.30801 182.0578 261.99958 182.60218 262.67753 183.16167 C 263.35549 183.72115 264.01965 184.29741 264.66972 184.88823 C 265.31978 185.47905 265.95494 186.08362 266.57597 186.70464 C 267.197 187.32565 267.80349 187.96279 268.39433 188.61284 C 268.98517 189.26289 269.55944 189.92709 270.11894 190.60503 C 270.67844 191.28297 271.22279 191.97457 271.7498 192.67925 C 272.27681 193.38393 272.78768 194.10132 273.28105 194.83159 C 273.77442 195.56186 274.2502 196.3054 274.70878 197.06011 C 275.16736 197.81481 275.60841 198.58094 276.03105 199.35893 C 276.45369 200.13693 276.85839 200.92598 277.24394 201.72612 C 277.62949 202.52626 277.99623 203.33664 278.34355 204.15776 C 278.69086 204.97889 279.01805 205.81094 279.32597 206.6519 C 279.63389 207.49287 279.92187 208.34303 280.18925 209.20268 C 280.45664 210.06234 280.70379 210.93096 280.92949 211.80815 C 281.15518 212.68535 281.35991 213.57082 281.54277 214.4644 C 281.72562 215.35799 281.88632 216.26065 282.02519 217.16948 C 282.16406 218.07831 282.28107 218.99461 282.3748 219.91753 C 282.46853 220.84045 282.5383 221.76878 282.58574 222.70464 C 282.63317 223.6405 282.658 224.58316 282.658 225.53081 C 282.658 239.86773 282.62675 280.40972 282.62675 280.40972 C 282.62675 280.40972 243.7376 280.43901 227.7498 280.43901 C 226.80215 280.43901 225.85948 280.41419 224.92362 280.36675 C 223.98777 280.31931 223.05944 280.24954 222.13651 280.15581 C 221.21359 280.06208 220.2973 279.94507 219.38847 279.8062 C 218.47964 279.66733 217.57698 279.50664 216.68339 279.32378 C 215.7898 279.14092 214.90434 278.9362 214.02714 278.7105 C 213.14994 278.4848 212.28134 278.23765 211.42167 277.97026 C 210.56201 277.70288 209.71187 277.41491 208.87089 277.10698 C 208.02991 276.79906 207.19789 276.47187 206.37675 276.12456 C 205.55561 275.77725 204.74526 275.4105 203.94511 275.02495 C 203.14496 274.6394 202.35593 274.2347 201.57792 273.81206 C 200.79991 273.38942 200.03381 272.94838 199.27909 272.4898 C 198.52437 272.03122 197.78086 271.55543 197.05058 271.06206 C 196.3203 270.56869 195.60293 270.05782 194.89823 269.53081 C 194.19354 269.0038 193.50197 268.45945 192.82401 267.89995 C 192.14606 267.34045 191.48189 266.76618 190.83183 266.17534 C 190.18176 265.58451 189.54465 264.97801 188.92362 264.35698 C 188.3026 263.73596 187.6961 263.09884 187.10526 262.44878 C 186.51443 261.79872 185.94015 261.13455 185.38065 260.45659 C 184.82116 259.77864 184.2768 259.08707 183.7498 258.38237 C 183.22279 257.67768 182.71191 256.96031 182.21854 256.23003 C 181.72518 255.49975 181.24939 254.75819 180.79081 254.00347 C 180.33223 253.24875 179.89119 252.4807 179.46854 251.70269 C 179.0459 250.92468 178.64121 250.13565 178.25565 249.3355 C 177.8701 248.53535 177.50336 247.725 177.15604 246.90386 C 176.80873 246.08272 176.48155 245.25069 176.17362 244.40972 C 175.8657 243.56874 175.57773 242.7186 175.31034 241.85894 C 175.04296 240.99927 174.7958 240.13067 174.57011 239.25347 C 174.34441 238.37626 174.13968 237.49081 173.95683 236.59722 C 173.77397 235.70362 173.61327 234.80097 173.4744 233.89214 C 173.33554 232.98331 173.21852 232.06701 173.12479 231.14409 C 173.03107 230.22117 172.9613 229.29284 172.91386 228.35698 C 172.86642 227.42112 172.84159 226.47846 172.84159 225.53081 C 172.84159 224.58316 172.86642 223.6405 172.91386 222.70464 C 172.9613 221.76878 173.03107 220.84045 173.12479 219.91753 C 173.21852 218.99461 173.33554 218.07831 173.4744 217.16948 C 173.61327 216.26065 173.77397 215.35799 173.95683 214.4644 C 174.13968 213.57082 174.34441 212.68535 174.57011 211.80815 C 174.7958 210.93096 175.04296 210.06234 175.31034 209.20268 C 175.57773 208.34303 175.8657 207.49287 176.17362 206.6519 C 176.48155 205.81094 176.80873 204.97889 177.15604 204.15776 C 177.50336 203.33664 177.8701 202.52626 178.25565 201.72612 C 178.64121 200.92598 179.0459 200.13693 179.46854 199.35893 C 179.89119 198.58094 180.33223 197.81481 180.79081 197.06011 C 181.24939 196.3054 181.72518 195.56186 182.21854 194.83159 C 182.71191 194.10132 183.22279 193.38393 183.7498 192.67925 C 184.2768 191.97457 184.82116 191.28297 185.38065 190.60503 C 185.94015 189.92709 186.51443 189.26289 187.10526 188.61284 C 187.6961 187.96279 188.3026 187.32565 188.92362 186.70464 C 189.54465 186.08362 190.18176 185.47905 190.83183 184.88823 C 191.48189 184.29741 192.14606 183.72115 192.82401 183.16167 C 193.50197 182.60218 194.19354 182.0578 194.89823 181.53081 C 195.60293 181.00381 196.3203 180.49487 197.05058 180.00151 C 197.78086 179.50815 198.52437 179.03039 199.27909 178.57182 C 200.03381 178.11326 200.79991 177.67414 201.57792 177.25151 C 202.35593 176.82888 203.14496 176.42416 203.94511 176.03862 C 204.74526 175.65308 205.55561 175.28632 206.37675 174.93901 C 207.19789 174.59171 208.02991 174.26255 208.87089 173.95464 C 209.71187 173.64672 210.56201 173.35873 211.42167 173.09136 C 212.28134 172.82398 213.14994 172.57876 214.02714 172.35307 C 214.90434 172.12739 215.7898 171.92264 216.68339 171.73979 C 217.57698 171.55694 218.47964 171.39428 219.38847 171.25542 C 220.2973 171.11655 221.21359 171.00149 222.13651 170.90776 C 223.05944 170.81404 223.98777 170.74231 224.92362 170.69487 C 225.85948 170.64743 226.80215 170.62456 227.7498 170.62456 z " />
  </g>
</svg>
